<svg version="1" xmlns="http://www.w3.org/2000/svg" width="682.667" height="682.667" viewBox="0 0 512.000000 512.000000"><path d="M419 41.6c-5.9 4.2-5.5-.4-5.7 65.3 0 33.3-.2 104.6-.2 158.4-.1 62.1-.5 97.7-1.1 97.7-.5 0-3.2-1.3-5.8-3-23.5-14.4-59.6-21.7-87.2-17.5-14.3 2.1-15.1 2.3-23.6 5.1-23 7.6-42.6 20.5-51.2 33.7-1.5 2.3-3 4.4-3.3 4.7-.4.3-1.7 3.4-2.9 7-4.5 12.8-2.6 27.1 5 38.9 4.3 6.6 16.5 19.1 18.6 19.1.7 0 1.4.3 1.6.8.5 1.2 10 6.9 15.8 9.5 7.5 3.3 23.5 8.4 29 9.2 2.5.3 6.1 1 8 1.4 2 .4 10.8.9 19.5 1 24.8.2 41.4-3.3 61-13.1 19.1-9.5 32-21.7 38.3-36.3l2.1-5-.2-186.2-.2-186.3-2.7-2.6c-3.5-3.5-11.1-4.4-14.8-1.8zm-58.5 326.8c18.3 2.6 34.2 10 44.2 20.5 7.6 8.1 9.6 20.4 4.7 30.7-2.5 5.1-10.2 12.7-16.9 16.5-3.3 1.8-6.4 3.4-7 3.5-.5.1-2.7.9-4.8 1.8-12.7 5.5-37.4 8.1-59.2 6.2-21.5-1.8-36.9-7.4-49-17.9-14.2-12.3-15.5-27.4-3.6-40.9 3.8-4.3 13.8-11.7 16.4-12.2.7-.1 3-1.1 5.2-2.1s8.7-3.1 14.5-4.6c10.3-2.8 11-2.9 31-2.5 11.3.3 22.3.7 24.5 1zM83.5 68.2c-3 1.7-5.3 4.9-6.4 8.7-1.2 4 1 10.2 4.7 13.5 2.1 1.8 6.4 1.9 149.4 1.9h147.1l2.4-2.9c3.4-4 4.1-6.2 3.9-11.2-.2-3.3-1-5-3.5-7.6l-3.2-3.3-146.2-.1c-106.8-.1-146.7.2-148.2 1z"/><path d="M81.7 139.3c-5 4.7-6.3 10.8-3.4 16.4 3.6 6.8-9.2 6.3 152.8 6.3h146.7l3-3.1c3.3-3.3 4.9-9.1 3.7-13.1-.4-1.3-2.1-3.7-3.7-5.4l-3-3.2-146.9-.1-146.8-.1-2.4 2.3zM95.7 209l-12.9.5-2.9 3.3c-4.2 4.7-4.2 10.2-.2 16.4l2.6 3.8h296.4l2.6-3c5.1-5.6 4.4-14.5-1.4-19.4-2.3-1.9-5.7-1.9-136.9-2-74-.1-140.3.1-147.3.4zM81.2 282.3c-6.2 6.6-5.7 16.5 1.1 21 2.1 1.4 17.4 1.5 148.8 1.5h146.4l3.2-3c5.6-5.3 5.5-13.5-.2-19.2l-2.6-2.6H83.3l-2.1 2.3zM84.5 352c-4.9 1.9-8.6 9-7.7 14.6.2 1.2 1.8 3.9 3.6 6l3.3 3.9 34.4-.1c74.2-.3 82.2-.7 86.2-4.2 4.2-3.7 3.7-12.6-1.2-17.9l-2.7-3-57-.1c-31.3 0-57.8.3-58.9.8zM83.9 421.9c-3.6 1.1-7.4 8-7.3 13.1.1 2.7 2.1 6.4 4.8 8.9l2.5 2.4 58.3-.1h58.3l3.2-3.6c3-3.3 3.6-4.8 3.6-9.8 0-3.1-2.3-7.2-5.1-9.3-2.6-1.9-4.3-2-59.8-2.1-31.4 0-57.7.2-58.5.5z"/></svg>