<svg version="1" xmlns="http://www.w3.org/2000/svg" width="426.667" height="426.667" viewBox="0 0 320.000000 320.000000"><path d="M301 2.2c-3.6.4-9 1-12 1.4-3 .3-6.8.7-8.5.9-1.6.2-5 .6-7.5.9-2.5.3-6.3.7-8.5 1-2.2.3-6.5.8-9.5 1-3 .3-6.6.8-8 1-1.4.3-5 .7-8.1 1-3.1.3-7.2.8-9 1-3.1.5-6.3.8-19.4 2.2-2.2.2-5.6.6-7.5.9-3.4.6-9.1 1.2-17.5 2-2.2.2-5.3.6-7 .8-1.6.3-6.1.8-10 1.2-3.8.4-7.7.8-8.5 1-.8.2-4.9.6-9 1s-8.4.9-9.4 1.1c-1.1.2-4.4.6-7.5.9-3.1.2-7.2.7-9.1 1-6.3.8-11.4 1.5-16.7 2-6.5.6-9.1 1.6-13.1 5-6.5 5.4-6.2 1.3-6.2 94.6 0 46.7-.3 84.9-.7 84.9-.5 0-3-.7-5.8-1.6-12.8-3.9-30-3.6-42.9.8-7.9 2.7-10.9 4.3-17.6 9.1-19 13.9-26.2 35.1-19 56.2 1.3 3.8 2.9 7.6 3.7 8.3.7.7 1.3 1.8 1.3 2.3 0 1.8 13.8 14.6 19 17.6 18.4 10.5 41.9 12.1 62 4.1 6.1-2.5 11.7-5.5 14.1-7.8.8-.8 3.1-2.9 5.1-4.5 5.7-5 11.1-13.3 13.8-21.6l2.5-7.7v-85.1c0-74.8.2-85.2 1.5-85.6.8-.2 4.7-.7 8.5-1 3.9-.3 8.1-.8 9.5-1 1.4-.2 5-.7 8-1 3-.3 7.1-.7 9-1 1.9-.3 6-.7 9-1.1 3-.3 6.9-.7 8.5-1 1.7-.2 5.5-.6 8.5-.9 5.7-.5 9.4-1 17-2 2.5-.3 6.8-.8 9.5-1 2.8-.3 6.7-.7 8.8-1 2-.3 5.4-.7 7.5-.9 2-.3 6.2-.8 9.2-1.2 3-.4 6.6-.8 8-.9 5.7-.6 15.7-1.7 18-2 1.4-.2 5.4-.7 9-1 3.6-.3 7.2-.8 8.1-1.1.9-.2 1.9.1 2.1.8.6 1.8.4 114.6-.2 115.1-.3.3-1.6 0-3-.6-2.8-1.1-4.4-1.6-8-2.2-1.4-.2-2.5-.4-2.5-.5 0-1.3-20.6-1.3-26 0-2.2.5-4 .9-4 .8 0-.6-12 4.1-15.5 6-5.4 3-13.8 9.3-16.4 12.3-12.6 14.9-16.3 34.7-9.6 50.5 10.6 24.7 39.3 39.1 69.5 35 7.3-1 19.2-5.4 25.5-9.4 11.1-7 23.1-22.3 24.3-30.9.2-1.2.6-2.6 1-2.9.4-.4.7-54.1.7-119.3 0-113.6-.1-118.7-1.9-121.4-3.7-5.7-8.6-7.5-17.1-6.5z"/></svg>